<svg xmlns="http://www.w3.org/2000/svg" width="390" height="1020" viewBox="0 0 390 1020" role="img" aria-labelledby="title"><title id="title">GymControl: Tu gimnasio, al día en móvil</title><rect x="0" y="0" width="390" height="1020" rx="0" fill="#f4f6f5"/><rect x="0" y="0" width="390" height="76" rx="0" fill="#142d26"/><text x="24" y="47" font-family="Arial,sans-serif" font-size="23" font-weight="700" fill="#ffffff">G / GymControl</text><text x="335" y="46" font-family="Arial,sans-serif" font-size="24" font-weight="400" fill="#b5edc3">☰</text><text x="24" y="113" font-family="Arial,sans-serif" font-size="12" font-weight="600" fill="#64756e">GYMCONTROL / RECEPCIÓN</text><text x="24" y="165" font-family="Arial,sans-serif" font-size="28" font-weight="700" fill="#172e29">Tu gimnasio, al día</text><rect x="24" y="202" width="342" height="128" rx="12" fill="#ffffff"/><text x="48" y="232" font-family="Arial,sans-serif" font-size="12" font-weight="700" fill="#64756e">SOCIOS ACTIVOS</text><text x="48" y="280" font-family="Arial,sans-serif" font-size="40" font-weight="700" fill="#172e29">128</text><text x="48" y="310" font-family="Arial,sans-serif" font-size="14" font-weight="400" fill="#64756e">Con membresía vigente</text><rect x="24" y="344" width="342" height="128" rx="12" fill="#ffffff"/><text x="48" y="374" font-family="Arial,sans-serif" font-size="12" font-weight="700" fill="#64756e">MEMBRESÍAS VENCIDAS</text><text x="48" y="422" font-family="Arial,sans-serif" font-size="40" font-weight="700" fill="#172e29">12</text><text x="48" y="452" font-family="Arial,sans-serif" font-size="14" font-weight="400" fill="#64756e">Pendientes de renovación</text><rect x="24" y="486" width="342" height="128" rx="12" fill="#ffffff"/><text x="48" y="516" font-family="Arial,sans-serif" font-size="12" font-weight="700" fill="#64756e">ASISTENCIAS HOY</text><text x="48" y="564" font-family="Arial,sans-serif" font-size="40" font-weight="700" fill="#172e29">36</text><text x="48" y="594" font-family="Arial,sans-serif" font-size="14" font-weight="400" fill="#64756e">Un entrenamiento más</text><rect x="24" y="654" width="342" height="300" rx="12" fill="#ffffff"/><text x="48" y="692" font-family="Arial,sans-serif" font-size="20" font-weight="700" fill="#172e29">Movimiento de la semana</text><rect x="54" y="822" width="25" height="52" rx="5" fill="#b5ddc6"/><text x="59" y="902" font-family="Arial,sans-serif" font-size="14" font-weight="400" fill="#64756e">L</text><rect x="96" y="789.5" width="25" height="84.5" rx="5" fill="#b5ddc6"/><text x="101" y="902" font-family="Arial,sans-serif" font-size="14" font-weight="400" fill="#64756e">M</text><rect x="138" y="811.6" width="25" height="62.400000000000006" rx="5" fill="#b5ddc6"/><text x="143" y="902" font-family="Arial,sans-serif" font-size="14" font-weight="400" fill="#64756e">M</text><rect x="180" y="770" width="25" height="104" rx="5" fill="#b5ddc6"/><text x="185" y="902" font-family="Arial,sans-serif" font-size="14" font-weight="400" fill="#64756e">J</text><rect x="222" y="744" width="25" height="130" rx="5" fill="#176b48"/><text x="227" y="902" font-family="Arial,sans-serif" font-size="14" font-weight="400" fill="#64756e">V</text><rect x="264" y="796" width="25" height="78" rx="5" fill="#b5ddc6"/><text x="269" y="902" font-family="Arial,sans-serif" font-size="14" font-weight="400" fill="#64756e">S</text><rect x="306" y="828.5" width="25" height="45.5" rx="5" fill="#b5ddc6"/><text x="311" y="902" font-family="Arial,sans-serif" font-size="14" font-weight="400" fill="#64756e">D</text><rect x="24" y="955" width="342" height="38" rx="8" fill="#e5efe8"/><text x="36" y="979" font-family="Arial,sans-serif" font-size="13" font-weight="600" fill="#176b48">Prototipo · Datos ficticios · Fase 1</text></svg>